<?xml version="1.0" encoding="UTF-8"?>
<svg width="27px" height="23px" viewBox="0 0 27 23" version="1.1" xmlns="http://www.w3.org/2000/svg" xmlns:xlink="http://www.w3.org/1999/xlink">
    <!-- Generator: Sketch 51.3 (57544) - http://www.bohemiancoding.com/sketch -->
    <title>Rectangle-22</title>
    <desc>Created with Sketch.</desc>
    <defs></defs>
    <g id="Page-1" stroke="none" stroke-width="1" fill="none" fill-rule="evenodd">
        <g id="robot" fill="#000000" fill-rule="nonzero">
            <path d="M5.0000003,7.5000005 C4.7238579,7.5000005 4.5000003,7.7238581 4.5000003,8.0000005 L4.5000003,20.941092 C4.5000003,21.2172344 4.7238579,21.441092 5.0000003,21.441092 L22.0000003,21.441092 C22.2761427,21.441092 22.5000003,21.2172344 22.5000003,20.941092 L22.5000003,8.0000005 C22.5000003,7.7238581 22.2761427,7.5000005 22.0000003,7.5000005 L5.0000003,7.5000005 Z M5.0000003,6.0000005 L22.0000003,6.0000005 C23.1045698,6.0000005 24.0000003,6.895431 24.0000003,8.0000005 L24.0000003,20.941092 C24.0000003,22.0456615 23.1045698,22.941092 22.0000003,22.941092 L5.0000003,22.941092 C3.8954308,22.941092 3.0000003,22.0456615 3.0000003,20.941092 L3.0000003,8.0000005 C3.0000003,6.895431 3.8954308,6.0000005 5.0000003,6.0000005 Z M23.5000003,16.5000005 L24.5000003,16.5000005 C24.7761427,16.5000005 25.0000003,16.2761428 25.0000003,16.0000005 L25.0000003,14.0000005 C25.0000003,13.7238581 24.7761427,13.5000005 24.5000003,13.5000005 L23.5000003,13.5000005 L23.5000003,12.0000005 L24.5000003,12.0000005 C25.6045698,12.0000005 26.5000003,12.895431 26.5000003,14.0000005 L26.5000003,16.0000005 C26.5000003,17.10457 25.6045698,18.0000005 24.5000003,18.0000005 L23.5000003,18.0000005 L23.5000003,16.5000005 Z M2.5000003,16.5000005 L3.5000003,16.5000005 L3.5000003,18.0000005 L2.5000003,18.0000005 C1.3954308,18.0000005 0.5000003,17.10457 0.5000003,16.0000005 L0.5000003,14.0000005 C0.5000003,12.895431 1.3954308,12.0000005 2.5000003,12.0000005 L3.5000003,12.0000005 L3.5000003,13.5000005 L2.5000003,13.5000005 C2.2238579,13.5000005 2.0000003,13.7238581 2.0000003,14.0000005 L2.0000003,16.0000005 C2.0000003,16.2761428 2.2238579,16.5000005 2.5000003,16.5000005 Z M14.2500003,7.0000005 L12.7500003,7.0000005 L12.7500003,4.0000005 L14.2500003,4.0000005 L14.2500003,7.0000005 Z M9.5000003,16.0000005 C10.3284274,16.0000005 11.0000003,15.3284276 11.0000003,14.5000005 C11.0000003,13.6715733 10.3284274,13.0000005 9.5000003,13.0000005 C8.6715732,13.0000005 8.0000003,13.6715733 8.0000003,14.5000005 C8.0000003,15.3284276 8.6715732,16.0000005 9.5000003,16.0000005 Z M9.5000003,17.5000005 C7.843146,17.5000005 6.5000003,16.1568547 6.5000003,14.5000005 C6.5000003,12.8431462 7.843146,11.5000005 9.5000003,11.5000005 C11.1568545,11.5000005 12.5000003,12.8431462 12.5000003,14.5000005 C12.5000003,16.1568547 11.1568545,17.5000005 9.5000003,17.5000005 Z M13.5000003,4.7500005 C12.2573596,4.7500005 11.2500003,3.7426412 11.2500003,2.5000005 C11.2500003,1.2573598 12.2573596,0.2500005 13.5000003,0.2500005 C14.742641,0.2500005 15.7500003,1.2573598 15.7500003,2.5000005 C15.7500003,3.7426412 14.742641,4.7500005 13.5000003,4.7500005 Z M13.5000003,3.2500005 C13.9142139,3.2500005 14.2500003,2.914214 14.2500003,2.5000005 C14.2500003,2.0857869 13.9142139,1.7500005 13.5000003,1.7500005 C13.0857867,1.7500005 12.7500003,2.0857869 12.7500003,2.5000005 C12.7500003,2.914214 13.0857867,3.2500005 13.5000003,3.2500005 Z M17.5000003,16.0000005 C18.3284274,16.0000005 19.0000003,15.3284276 19.0000003,14.5000005 C19.0000003,13.6715733 18.3284274,13.0000005 17.5000003,13.0000005 C16.6715732,13.0000005 16.0000003,13.6715733 16.0000003,14.5000005 C16.0000003,15.3284276 16.6715732,16.0000005 17.5000003,16.0000005 Z M17.5000003,17.5000005 C15.843146,17.5000005 14.5000003,16.1568547 14.5000003,14.5000005 C14.5000003,12.8431462 15.843146,11.5000005 17.5000003,11.5000005 C19.1568545,11.5000005 20.5000003,12.8431462 20.5000003,14.5000005 C20.5000003,16.1568547 19.1568545,17.5000005 17.5000003,17.5000005 Z" id="Rectangle-22"></path>
        </g>
    </g>
</svg>