<?xml version="1.0" encoding="UTF-8"?>
<svg width="27px" height="23px" viewBox="0 0 27 23" version="1.1" xmlns="http://www.w3.org/2000/svg" xmlns:xlink="http://www.w3.org/1999/xlink">
    <!-- Generator: Sketch 51.1 (57501) - http://www.bohemiancoding.com/sketch -->
    <title>Rectangle 22</title>
    <desc>Created with Sketch.</desc>
    <defs></defs>
    <g id="Final-phase-1-screens" stroke="none" stroke-width="1" fill="none" fill-rule="evenodd">
        <g id="00---No-rule-splash-page" transform="translate(-296.000000, -329.000000)" fill="#8A8A8A" fill-rule="nonzero">
            <g id="Group-2" transform="translate(275.384389, 307.941092)">
                <path d="M25.6156113,28.5589085 C25.3394689,28.5589085 25.1156113,28.7827661 25.1156113,29.0589085 L25.1156113,42 C25.1156113,42.2761424 25.3394689,42.5 25.6156113,42.5 L42.6156113,42.5 C42.8917537,42.5 43.1156113,42.2761424 43.1156113,42 L43.1156113,29.0589085 C43.1156113,28.7827661 42.8917537,28.5589085 42.6156113,28.5589085 L25.6156113,28.5589085 Z M25.6156113,27.0589085 L42.6156113,27.0589085 C43.7201808,27.0589085 44.6156113,27.954339 44.6156113,29.0589085 L44.6156113,42 C44.6156113,43.1045695 43.7201808,44 42.6156113,44 L25.6156113,44 C24.5110418,44 23.6156113,43.1045695 23.6156113,42 L23.6156113,29.0589085 C23.6156113,27.954339 24.5110418,27.0589085 25.6156113,27.0589085 Z M44.1156113,37.5589085 L45.1156113,37.5589085 C45.3917537,37.5589085 45.6156113,37.3350508 45.6156113,37.0589085 L45.6156113,35.0589085 C45.6156113,34.7827661 45.3917537,34.5589085 45.1156113,34.5589085 L44.1156113,34.5589085 L44.1156113,33.0589085 L45.1156113,33.0589085 C46.2201808,33.0589085 47.1156113,33.954339 47.1156113,35.0589085 L47.1156113,37.0589085 C47.1156113,38.163478 46.2201808,39.0589085 45.1156113,39.0589085 L44.1156113,39.0589085 L44.1156113,37.5589085 Z M23.1156113,37.5589085 L24.1156113,37.5589085 L24.1156113,39.0589085 L23.1156113,39.0589085 C22.0110418,39.0589085 21.1156113,38.163478 21.1156113,37.0589085 L21.1156113,35.0589085 C21.1156113,33.954339 22.0110418,33.0589085 23.1156113,33.0589085 L24.1156113,33.0589085 L24.1156113,34.5589085 L23.1156113,34.5589085 C22.8394689,34.5589085 22.6156113,34.7827661 22.6156113,35.0589085 L22.6156113,37.0589085 C22.6156113,37.3350508 22.8394689,37.5589085 23.1156113,37.5589085 Z M34.8656113,28.0589085 L33.3656113,28.0589085 L33.3656113,25.0589085 L34.8656113,25.0589085 L34.8656113,28.0589085 Z M30.1156113,37.0589085 C30.9440384,37.0589085 31.6156113,36.3873356 31.6156113,35.5589085 C31.6156113,34.7304813 30.9440384,34.0589085 30.1156113,34.0589085 C29.2871842,34.0589085 28.6156113,34.7304813 28.6156113,35.5589085 C28.6156113,36.3873356 29.2871842,37.0589085 30.1156113,37.0589085 Z M30.1156113,38.5589085 C28.458757,38.5589085 27.1156113,37.2157627 27.1156113,35.5589085 C27.1156113,33.9020542 28.458757,32.5589085 30.1156113,32.5589085 C31.7724655,32.5589085 33.1156113,33.9020542 33.1156113,35.5589085 C33.1156113,37.2157627 31.7724655,38.5589085 30.1156113,38.5589085 Z M34.1156113,25.8089085 C32.8729706,25.8089085 31.8656113,24.8015492 31.8656113,23.5589085 C31.8656113,22.3162678 32.8729706,21.3089085 34.1156113,21.3089085 C35.358252,21.3089085 36.3656113,22.3162678 36.3656113,23.5589085 C36.3656113,24.8015492 35.358252,25.8089085 34.1156113,25.8089085 Z M34.1156113,24.3089085 C34.5298249,24.3089085 34.8656113,23.973122 34.8656113,23.5589085 C34.8656113,23.1446949 34.5298249,22.8089085 34.1156113,22.8089085 C33.7013977,22.8089085 33.3656113,23.1446949 33.3656113,23.5589085 C33.3656113,23.973122 33.7013977,24.3089085 34.1156113,24.3089085 Z M38.1156113,37.0589085 C38.9440384,37.0589085 39.6156113,36.3873356 39.6156113,35.5589085 C39.6156113,34.7304813 38.9440384,34.0589085 38.1156113,34.0589085 C37.2871842,34.0589085 36.6156113,34.7304813 36.6156113,35.5589085 C36.6156113,36.3873356 37.2871842,37.0589085 38.1156113,37.0589085 Z M38.1156113,38.5589085 C36.458757,38.5589085 35.1156113,37.2157627 35.1156113,35.5589085 C35.1156113,33.9020542 36.458757,32.5589085 38.1156113,32.5589085 C39.7724655,32.5589085 41.1156113,33.9020542 41.1156113,35.5589085 C41.1156113,37.2157627 39.7724655,38.5589085 38.1156113,38.5589085 Z" id="Rectangle-22"></path>
            </g>
        </g>
    </g>
</svg>